<mxfile host="app.diagrams.net" modified="2023-12-29T09:48:34.051Z" agent="Mozilla/5.0 (X11; Ubuntu; Linux x86_64; rv:109.0) Gecko/20100101 Firefox/117.0" etag="PRISLMkyRw2nQdcPbb-I" version="22.1.15" type="github">
  <diagram name="Page-1" id="8VOXqZR4LBoCSmC004xK">
    <mxGraphModel dx="2049" dy="1296" grid="1" gridSize="10" guides="1" tooltips="1" connect="1" arrows="1" fold="1" page="1" pageScale="1" pageWidth="850" pageHeight="1100" math="0" shadow="0">
      <root>
        <mxCell id="0" />
        <mxCell id="1" parent="0" />
        <mxCell id="CyJOnHxQEZw6uioQjQEH-8" style="edgeStyle=orthogonalEdgeStyle;rounded=0;orthogonalLoop=1;jettySize=auto;html=1;exitX=0.5;exitY=1;exitDx=0;exitDy=0;entryX=0.5;entryY=0;entryDx=0;entryDy=0;" edge="1" parent="1" source="CyJOnHxQEZw6uioQjQEH-1" target="CyJOnHxQEZw6uioQjQEH-3">
          <mxGeometry relative="1" as="geometry" />
        </mxCell>
        <mxCell id="CyJOnHxQEZw6uioQjQEH-10" style="edgeStyle=orthogonalEdgeStyle;rounded=0;orthogonalLoop=1;jettySize=auto;html=1;exitX=0;exitY=1;exitDx=0;exitDy=0;" edge="1" parent="1" source="CyJOnHxQEZw6uioQjQEH-1" target="CyJOnHxQEZw6uioQjQEH-4">
          <mxGeometry relative="1" as="geometry" />
        </mxCell>
        <mxCell id="CyJOnHxQEZw6uioQjQEH-11" style="edgeStyle=orthogonalEdgeStyle;rounded=0;orthogonalLoop=1;jettySize=auto;html=1;exitX=0.25;exitY=1;exitDx=0;exitDy=0;" edge="1" parent="1" source="CyJOnHxQEZw6uioQjQEH-1" target="CyJOnHxQEZw6uioQjQEH-5">
          <mxGeometry relative="1" as="geometry" />
        </mxCell>
        <mxCell id="CyJOnHxQEZw6uioQjQEH-12" style="edgeStyle=orthogonalEdgeStyle;rounded=0;orthogonalLoop=1;jettySize=auto;html=1;exitX=0.75;exitY=1;exitDx=0;exitDy=0;entryX=0.5;entryY=0;entryDx=0;entryDy=0;" edge="1" parent="1" source="CyJOnHxQEZw6uioQjQEH-1" target="CyJOnHxQEZw6uioQjQEH-6">
          <mxGeometry relative="1" as="geometry" />
        </mxCell>
        <mxCell id="CyJOnHxQEZw6uioQjQEH-13" style="edgeStyle=orthogonalEdgeStyle;rounded=0;orthogonalLoop=1;jettySize=auto;html=1;exitX=1;exitY=1;exitDx=0;exitDy=0;entryX=0.5;entryY=0;entryDx=0;entryDy=0;" edge="1" parent="1" source="CyJOnHxQEZw6uioQjQEH-1" target="CyJOnHxQEZw6uioQjQEH-7">
          <mxGeometry relative="1" as="geometry" />
        </mxCell>
        <mxCell id="CyJOnHxQEZw6uioQjQEH-15" style="edgeStyle=orthogonalEdgeStyle;rounded=0;orthogonalLoop=1;jettySize=auto;html=1;exitX=1;exitY=0.5;exitDx=0;exitDy=0;entryX=0.5;entryY=0;entryDx=0;entryDy=0;" edge="1" parent="1" source="CyJOnHxQEZw6uioQjQEH-1" target="CyJOnHxQEZw6uioQjQEH-14">
          <mxGeometry relative="1" as="geometry" />
        </mxCell>
        <mxCell id="CyJOnHxQEZw6uioQjQEH-1" value="&lt;div&gt;tortoisebot&lt;/div&gt;" style="rounded=0;whiteSpace=wrap;html=1;" vertex="1" parent="1">
          <mxGeometry x="1190" y="340" width="120" height="60" as="geometry" />
        </mxCell>
        <mxCell id="CyJOnHxQEZw6uioQjQEH-21" value="" style="edgeStyle=orthogonalEdgeStyle;rounded=0;orthogonalLoop=1;jettySize=auto;html=1;" edge="1" parent="1" source="CyJOnHxQEZw6uioQjQEH-3" target="CyJOnHxQEZw6uioQjQEH-17">
          <mxGeometry relative="1" as="geometry" />
        </mxCell>
        <mxCell id="CyJOnHxQEZw6uioQjQEH-3" value="&lt;div&gt;wifi_connect&lt;/div&gt;" style="whiteSpace=wrap;html=1;" vertex="1" parent="1">
          <mxGeometry x="570" y="470" width="120" height="60" as="geometry" />
        </mxCell>
        <mxCell id="CyJOnHxQEZw6uioQjQEH-36" style="edgeStyle=orthogonalEdgeStyle;rounded=0;orthogonalLoop=1;jettySize=auto;html=1;exitX=0.5;exitY=1;exitDx=0;exitDy=0;" edge="1" parent="1" source="CyJOnHxQEZw6uioQjQEH-4" target="CyJOnHxQEZw6uioQjQEH-26">
          <mxGeometry relative="1" as="geometry" />
        </mxCell>
        <mxCell id="CyJOnHxQEZw6uioQjQEH-4" value="hotspot_up" style="whiteSpace=wrap;html=1;" vertex="1" parent="1">
          <mxGeometry x="780" y="470" width="120" height="60" as="geometry" />
        </mxCell>
        <mxCell id="CyJOnHxQEZw6uioQjQEH-53" value="" style="edgeStyle=orthogonalEdgeStyle;rounded=0;orthogonalLoop=1;jettySize=auto;html=1;" edge="1" parent="1" source="CyJOnHxQEZw6uioQjQEH-5" target="CyJOnHxQEZw6uioQjQEH-52">
          <mxGeometry relative="1" as="geometry" />
        </mxCell>
        <mxCell id="CyJOnHxQEZw6uioQjQEH-5" value="hotspot_down" style="whiteSpace=wrap;html=1;" vertex="1" parent="1">
          <mxGeometry x="990" y="470" width="120" height="60" as="geometry" />
        </mxCell>
        <mxCell id="CyJOnHxQEZw6uioQjQEH-62" value="" style="edgeStyle=orthogonalEdgeStyle;rounded=0;orthogonalLoop=1;jettySize=auto;html=1;" edge="1" parent="1" source="CyJOnHxQEZw6uioQjQEH-6" target="CyJOnHxQEZw6uioQjQEH-61">
          <mxGeometry relative="1" as="geometry" />
        </mxCell>
        <mxCell id="CyJOnHxQEZw6uioQjQEH-6" value="hotspot_forced_up" style="whiteSpace=wrap;html=1;" vertex="1" parent="1">
          <mxGeometry x="1370" y="730" width="120" height="60" as="geometry" />
        </mxCell>
        <mxCell id="CyJOnHxQEZw6uioQjQEH-79" value="" style="edgeStyle=orthogonalEdgeStyle;rounded=0;orthogonalLoop=1;jettySize=auto;html=1;" edge="1" parent="1" source="CyJOnHxQEZw6uioQjQEH-7" target="CyJOnHxQEZw6uioQjQEH-78">
          <mxGeometry relative="1" as="geometry" />
        </mxCell>
        <mxCell id="CyJOnHxQEZw6uioQjQEH-89" style="edgeStyle=orthogonalEdgeStyle;rounded=0;orthogonalLoop=1;jettySize=auto;html=1;exitX=1;exitY=0.5;exitDx=0;exitDy=0;entryX=0.5;entryY=0;entryDx=0;entryDy=0;" edge="1" parent="1" source="CyJOnHxQEZw6uioQjQEH-7" target="CyJOnHxQEZw6uioQjQEH-88">
          <mxGeometry relative="1" as="geometry" />
        </mxCell>
        <mxCell id="CyJOnHxQEZw6uioQjQEH-7" value="network_status" style="whiteSpace=wrap;html=1;" vertex="1" parent="1">
          <mxGeometry x="1410" y="470" width="120" height="60" as="geometry" />
        </mxCell>
        <mxCell id="CyJOnHxQEZw6uioQjQEH-94" value="" style="edgeStyle=orthogonalEdgeStyle;rounded=0;orthogonalLoop=1;jettySize=auto;html=1;" edge="1" parent="1" source="CyJOnHxQEZw6uioQjQEH-14" target="CyJOnHxQEZw6uioQjQEH-93">
          <mxGeometry relative="1" as="geometry" />
        </mxCell>
        <mxCell id="CyJOnHxQEZw6uioQjQEH-14" value="hotspot_debug" style="rounded=0;whiteSpace=wrap;html=1;" vertex="1" parent="1">
          <mxGeometry x="1940" y="630" width="120" height="60" as="geometry" />
        </mxCell>
        <mxCell id="CyJOnHxQEZw6uioQjQEH-24" value="" style="edgeStyle=orthogonalEdgeStyle;rounded=0;orthogonalLoop=1;jettySize=auto;html=1;" edge="1" parent="1" source="CyJOnHxQEZw6uioQjQEH-16" target="CyJOnHxQEZw6uioQjQEH-19">
          <mxGeometry relative="1" as="geometry" />
        </mxCell>
        <mxCell id="CyJOnHxQEZw6uioQjQEH-16" value="&lt;div&gt;choices maker&lt;/div&gt;" style="rounded=0;whiteSpace=wrap;html=1;" vertex="1" parent="1">
          <mxGeometry x="330" y="770" width="120" height="60" as="geometry" />
        </mxCell>
        <mxCell id="CyJOnHxQEZw6uioQjQEH-22" value="" style="edgeStyle=orthogonalEdgeStyle;rounded=0;orthogonalLoop=1;jettySize=auto;html=1;" edge="1" parent="1" source="CyJOnHxQEZw6uioQjQEH-17" target="CyJOnHxQEZw6uioQjQEH-18">
          <mxGeometry relative="1" as="geometry" />
        </mxCell>
        <mxCell id="CyJOnHxQEZw6uioQjQEH-17" value="dmsg(&quot;scannng network&quot;)" style="rounded=1;whiteSpace=wrap;html=1;" vertex="1" parent="1">
          <mxGeometry x="520" y="560" width="120" height="60" as="geometry" />
        </mxCell>
        <mxCell id="CyJOnHxQEZw6uioQjQEH-23" value="" style="edgeStyle=orthogonalEdgeStyle;rounded=0;orthogonalLoop=1;jettySize=auto;html=1;" edge="1" parent="1" source="CyJOnHxQEZw6uioQjQEH-18" target="CyJOnHxQEZw6uioQjQEH-16">
          <mxGeometry relative="1" as="geometry" />
        </mxCell>
        <mxCell id="CyJOnHxQEZw6uioQjQEH-18" value="wifi_scan" style="whiteSpace=wrap;html=1;" vertex="1" parent="1">
          <mxGeometry x="420" y="660" width="120" height="60" as="geometry" />
        </mxCell>
        <mxCell id="CyJOnHxQEZw6uioQjQEH-25" value="" style="edgeStyle=orthogonalEdgeStyle;rounded=0;orthogonalLoop=1;jettySize=auto;html=1;" edge="1" parent="1" source="CyJOnHxQEZw6uioQjQEH-19" target="CyJOnHxQEZw6uioQjQEH-20">
          <mxGeometry relative="1" as="geometry" />
        </mxCell>
        <mxCell id="CyJOnHxQEZw6uioQjQEH-19" value="&lt;div&gt;convert the values to&lt;/div&gt;&lt;div&gt;dictionaries&lt;/div&gt;" style="whiteSpace=wrap;html=1;" vertex="1" parent="1">
          <mxGeometry x="240" y="878" width="120" height="60" as="geometry" />
        </mxCell>
        <mxCell id="CyJOnHxQEZw6uioQjQEH-20" value="&lt;div&gt;nmcli get wifi device data&lt;/div&gt;" style="whiteSpace=wrap;html=1;" vertex="1" parent="1">
          <mxGeometry x="170" y="1010" width="120" height="60" as="geometry" />
        </mxCell>
        <mxCell id="CyJOnHxQEZw6uioQjQEH-34" style="edgeStyle=orthogonalEdgeStyle;rounded=0;orthogonalLoop=1;jettySize=auto;html=1;exitX=0.5;exitY=1;exitDx=0;exitDy=0;entryX=0;entryY=0.5;entryDx=0;entryDy=0;" edge="1" parent="1" source="CyJOnHxQEZw6uioQjQEH-26" target="CyJOnHxQEZw6uioQjQEH-32">
          <mxGeometry relative="1" as="geometry" />
        </mxCell>
        <mxCell id="CyJOnHxQEZw6uioQjQEH-26" value="&lt;div&gt;Check whether&lt;/div&gt;&lt;div&gt;it is connect to a network or not&lt;br&gt;&lt;/div&gt;" style="whiteSpace=wrap;html=1;" vertex="1" parent="1">
          <mxGeometry x="775" y="580" width="120" height="60" as="geometry" />
        </mxCell>
        <mxCell id="CyJOnHxQEZw6uioQjQEH-28" value="&lt;div&gt;Hotspot debug&lt;/div&gt;&lt;div&gt;makes orphan hotspot,&lt;/div&gt;&lt;div&gt;it can distrupt the &lt;br&gt;&lt;/div&gt;&lt;div&gt;normal working of the application&lt;br&gt;Potentaily create&lt;br&gt;Hotspot, Hotspot-1, Hotspot-2 connections&lt;br&gt;&lt;/div&gt;" style="shape=note;whiteSpace=wrap;html=1;backgroundOutline=1;fontColor=#000000;darkOpacity=0.05;fillColor=#FFF9B2;strokeColor=none;fillStyle=solid;direction=west;gradientDirection=north;gradientColor=#FFF2A1;shadow=1;size=20;pointerEvents=1;" vertex="1" parent="1">
          <mxGeometry x="1820" y="390" width="140" height="160" as="geometry" />
        </mxCell>
        <mxCell id="CyJOnHxQEZw6uioQjQEH-38" style="edgeStyle=orthogonalEdgeStyle;rounded=0;orthogonalLoop=1;jettySize=auto;html=1;exitX=1;exitY=0.5;exitDx=0;exitDy=0;entryX=0.5;entryY=0;entryDx=0;entryDy=0;" edge="1" parent="1" source="CyJOnHxQEZw6uioQjQEH-32" target="CyJOnHxQEZw6uioQjQEH-40">
          <mxGeometry relative="1" as="geometry">
            <mxPoint x="1060" y="890" as="targetPoint" />
          </mxGeometry>
        </mxCell>
        <mxCell id="CyJOnHxQEZw6uioQjQEH-44" style="edgeStyle=orthogonalEdgeStyle;rounded=0;orthogonalLoop=1;jettySize=auto;html=1;exitX=0.5;exitY=1;exitDx=0;exitDy=0;entryX=0.5;entryY=0;entryDx=0;entryDy=0;" edge="1" parent="1" source="CyJOnHxQEZw6uioQjQEH-32" target="CyJOnHxQEZw6uioQjQEH-43">
          <mxGeometry relative="1" as="geometry" />
        </mxCell>
        <mxCell id="CyJOnHxQEZw6uioQjQEH-32" value="&lt;div&gt;if connected to wifi&lt;/div&gt;&lt;div&gt;don&#39;t allow it to start a wifi connection(&lt;br&gt;it will close ssh)&lt;br&gt;&lt;/div&gt;" style="rhombus;whiteSpace=wrap;html=1;" vertex="1" parent="1">
          <mxGeometry x="810" y="660" width="180" height="180" as="geometry" />
        </mxCell>
        <mxCell id="CyJOnHxQEZw6uioQjQEH-39" value="YES?" style="text;html=1;align=center;verticalAlign=middle;resizable=0;points=[];autosize=1;strokeColor=none;fillColor=none;" vertex="1" parent="1">
          <mxGeometry x="995" y="718" width="50" height="30" as="geometry" />
        </mxCell>
        <mxCell id="CyJOnHxQEZw6uioQjQEH-40" value="&lt;div&gt;exit&lt;/div&gt;" style="whiteSpace=wrap;html=1;" vertex="1" parent="1">
          <mxGeometry x="970" y="830" width="120" height="60" as="geometry" />
        </mxCell>
        <mxCell id="CyJOnHxQEZw6uioQjQEH-47" style="edgeStyle=orthogonalEdgeStyle;rounded=0;orthogonalLoop=1;jettySize=auto;html=1;entryX=0.5;entryY=0;entryDx=0;entryDy=0;" edge="1" parent="1" source="CyJOnHxQEZw6uioQjQEH-43" target="CyJOnHxQEZw6uioQjQEH-46">
          <mxGeometry relative="1" as="geometry" />
        </mxCell>
        <mxCell id="CyJOnHxQEZw6uioQjQEH-43" value="Start hotspot &lt;br&gt;using default &lt;br&gt;credentials" style="whiteSpace=wrap;html=1;" vertex="1" parent="1">
          <mxGeometry x="840" y="900" width="120" height="60" as="geometry" />
        </mxCell>
        <mxCell id="CyJOnHxQEZw6uioQjQEH-45" value="NO?" style="text;html=1;align=center;verticalAlign=middle;resizable=0;points=[];autosize=1;strokeColor=none;fillColor=none;" vertex="1" parent="1">
          <mxGeometry x="895" y="848" width="50" height="30" as="geometry" />
        </mxCell>
        <mxCell id="CyJOnHxQEZw6uioQjQEH-49" value="" style="edgeStyle=orthogonalEdgeStyle;rounded=0;orthogonalLoop=1;jettySize=auto;html=1;" edge="1" parent="1" source="CyJOnHxQEZw6uioQjQEH-46" target="CyJOnHxQEZw6uioQjQEH-48">
          <mxGeometry relative="1" as="geometry" />
        </mxCell>
        <mxCell id="CyJOnHxQEZw6uioQjQEH-46" value="SSID : TortoiseBot_Hotspot&lt;br&gt;pw : tortoisebot" style="rounded=1;whiteSpace=wrap;html=1;" vertex="1" parent="1">
          <mxGeometry x="835" y="1010" width="120" height="60" as="geometry" />
        </mxCell>
        <mxCell id="CyJOnHxQEZw6uioQjQEH-48" value="&lt;div&gt;spin_up_hotspot&lt;/div&gt;" style="rounded=1;whiteSpace=wrap;html=1;" vertex="1" parent="1">
          <mxGeometry x="835" y="1120" width="120" height="60" as="geometry" />
        </mxCell>
        <mxCell id="CyJOnHxQEZw6uioQjQEH-56" value="" style="edgeStyle=orthogonalEdgeStyle;rounded=0;orthogonalLoop=1;jettySize=auto;html=1;" edge="1" parent="1" source="CyJOnHxQEZw6uioQjQEH-52" target="CyJOnHxQEZw6uioQjQEH-55">
          <mxGeometry relative="1" as="geometry" />
        </mxCell>
        <mxCell id="CyJOnHxQEZw6uioQjQEH-60" value="" style="edgeStyle=orthogonalEdgeStyle;rounded=0;orthogonalLoop=1;jettySize=auto;html=1;" edge="1" parent="1" source="CyJOnHxQEZw6uioQjQEH-73" target="CyJOnHxQEZw6uioQjQEH-59">
          <mxGeometry relative="1" as="geometry" />
        </mxCell>
        <mxCell id="CyJOnHxQEZw6uioQjQEH-77" value="" style="edgeStyle=orthogonalEdgeStyle;rounded=0;orthogonalLoop=1;jettySize=auto;html=1;" edge="1" parent="1" source="CyJOnHxQEZw6uioQjQEH-52" target="CyJOnHxQEZw6uioQjQEH-75">
          <mxGeometry relative="1" as="geometry" />
        </mxCell>
        <mxCell id="CyJOnHxQEZw6uioQjQEH-52" value="check &lt;br&gt;&lt;div&gt;type of&lt;br&gt;active&lt;br&gt;&lt;/div&gt;&lt;div&gt;&amp;nbsp;connection&lt;/div&gt;" style="rhombus;whiteSpace=wrap;html=1;" vertex="1" parent="1">
          <mxGeometry x="1030" y="610" width="100" height="100" as="geometry" />
        </mxCell>
        <mxCell id="CyJOnHxQEZw6uioQjQEH-58" value="" style="edgeStyle=orthogonalEdgeStyle;rounded=0;orthogonalLoop=1;jettySize=auto;html=1;" edge="1" parent="1" source="CyJOnHxQEZw6uioQjQEH-55" target="CyJOnHxQEZw6uioQjQEH-57">
          <mxGeometry relative="1" as="geometry" />
        </mxCell>
        <mxCell id="CyJOnHxQEZw6uioQjQEH-55" value="WIFI" style="whiteSpace=wrap;html=1;" vertex="1" parent="1">
          <mxGeometry x="1200" y="630" width="120" height="60" as="geometry" />
        </mxCell>
        <mxCell id="CyJOnHxQEZw6uioQjQEH-57" value="exit, as wifi on hain" style="whiteSpace=wrap;html=1;" vertex="1" parent="1">
          <mxGeometry x="1200" y="730" width="120" height="60" as="geometry" />
        </mxCell>
        <mxCell id="CyJOnHxQEZw6uioQjQEH-59" value="Kill hotspot" style="whiteSpace=wrap;html=1;" vertex="1" parent="1">
          <mxGeometry x="1070" y="780" width="120" height="60" as="geometry" />
        </mxCell>
        <mxCell id="CyJOnHxQEZw6uioQjQEH-64" value="" style="edgeStyle=orthogonalEdgeStyle;rounded=0;orthogonalLoop=1;jettySize=auto;html=1;" edge="1" parent="1" source="CyJOnHxQEZw6uioQjQEH-61" target="CyJOnHxQEZw6uioQjQEH-63">
          <mxGeometry relative="1" as="geometry" />
        </mxCell>
        <mxCell id="CyJOnHxQEZw6uioQjQEH-61" value="turn off wifi" style="whiteSpace=wrap;html=1;" vertex="1" parent="1">
          <mxGeometry x="1370" y="848" width="120" height="60" as="geometry" />
        </mxCell>
        <mxCell id="CyJOnHxQEZw6uioQjQEH-65" style="edgeStyle=orthogonalEdgeStyle;rounded=0;orthogonalLoop=1;jettySize=auto;html=1;entryX=1;entryY=0.5;entryDx=0;entryDy=0;" edge="1" parent="1" source="CyJOnHxQEZw6uioQjQEH-63" target="CyJOnHxQEZw6uioQjQEH-5">
          <mxGeometry relative="1" as="geometry">
            <Array as="points">
              <mxPoint x="1340" y="990" />
              <mxPoint x="1340" y="500" />
            </Array>
          </mxGeometry>
        </mxCell>
        <mxCell id="CyJOnHxQEZw6uioQjQEH-67" value="" style="edgeStyle=orthogonalEdgeStyle;rounded=0;orthogonalLoop=1;jettySize=auto;html=1;" edge="1" parent="1" source="CyJOnHxQEZw6uioQjQEH-63" target="CyJOnHxQEZw6uioQjQEH-66">
          <mxGeometry relative="1" as="geometry" />
        </mxCell>
        <mxCell id="CyJOnHxQEZw6uioQjQEH-63" value="hotspot_down" style="whiteSpace=wrap;html=1;" vertex="1" parent="1">
          <mxGeometry x="1390" y="960" width="120" height="60" as="geometry" />
        </mxCell>
        <mxCell id="CyJOnHxQEZw6uioQjQEH-69" value="" style="edgeStyle=orthogonalEdgeStyle;rounded=0;orthogonalLoop=1;jettySize=auto;html=1;" edge="1" parent="1" source="CyJOnHxQEZw6uioQjQEH-66" target="CyJOnHxQEZw6uioQjQEH-68">
          <mxGeometry relative="1" as="geometry" />
        </mxCell>
        <mxCell id="CyJOnHxQEZw6uioQjQEH-66" value="&lt;div&gt;kill hotspot&lt;/div&gt;" style="whiteSpace=wrap;html=1;" vertex="1" parent="1">
          <mxGeometry x="1390" y="1060" width="120" height="60" as="geometry" />
        </mxCell>
        <mxCell id="CyJOnHxQEZw6uioQjQEH-70" style="edgeStyle=orthogonalEdgeStyle;rounded=0;orthogonalLoop=1;jettySize=auto;html=1;entryX=1;entryY=0.5;entryDx=0;entryDy=0;" edge="1" parent="1" source="CyJOnHxQEZw6uioQjQEH-68" target="CyJOnHxQEZw6uioQjQEH-43">
          <mxGeometry relative="1" as="geometry" />
        </mxCell>
        <mxCell id="CyJOnHxQEZw6uioQjQEH-68" value="Start hotspot, with default credentials." style="whiteSpace=wrap;html=1;" vertex="1" parent="1">
          <mxGeometry x="1390" y="1170" width="120" height="60" as="geometry" />
        </mxCell>
        <mxCell id="CyJOnHxQEZw6uioQjQEH-72" value="&lt;div align=&quot;justify&quot; style=&quot;font-size: 28px;&quot;&gt;&lt;h1&gt;&lt;b&gt;&lt;font style=&quot;font-size: 28px;&quot;&gt;TortoiseBot &lt;br&gt;&lt;/font&gt;&lt;/b&gt;&lt;/h1&gt;&lt;/div&gt;&lt;div align=&quot;justify&quot; style=&quot;font-size: 28px;&quot;&gt;&lt;b&gt;&lt;font style=&quot;font-size: 28px;&quot;&gt;&lt;br&gt;&lt;/font&gt;&lt;/b&gt;&lt;/div&gt;" style="text;html=1;align=center;verticalAlign=middle;resizable=0;points=[];autosize=1;strokeColor=none;fillColor=none;" vertex="1" parent="1">
          <mxGeometry x="1150" y="130" width="180" height="190" as="geometry" />
        </mxCell>
        <mxCell id="CyJOnHxQEZw6uioQjQEH-74" value="" style="edgeStyle=orthogonalEdgeStyle;rounded=0;orthogonalLoop=1;jettySize=auto;html=1;" edge="1" parent="1" source="CyJOnHxQEZw6uioQjQEH-52" target="CyJOnHxQEZw6uioQjQEH-73">
          <mxGeometry relative="1" as="geometry">
            <mxPoint x="1080" y="710" as="sourcePoint" />
            <mxPoint x="1120" y="740" as="targetPoint" />
          </mxGeometry>
        </mxCell>
        <mxCell id="CyJOnHxQEZw6uioQjQEH-73" value="hotspot?" style="text;html=1;align=center;verticalAlign=middle;resizable=0;points=[];autosize=1;strokeColor=none;fillColor=none;" vertex="1" parent="1">
          <mxGeometry x="1070" y="710" width="70" height="30" as="geometry" />
        </mxCell>
        <mxCell id="CyJOnHxQEZw6uioQjQEH-75" value="Nothing&lt;br&gt;is ON" style="whiteSpace=wrap;html=1;" vertex="1" parent="1">
          <mxGeometry x="935" y="600" width="60" height="60" as="geometry" />
        </mxCell>
        <mxCell id="CyJOnHxQEZw6uioQjQEH-81" value="" style="edgeStyle=orthogonalEdgeStyle;rounded=0;orthogonalLoop=1;jettySize=auto;html=1;" edge="1" parent="1" source="CyJOnHxQEZw6uioQjQEH-78" target="CyJOnHxQEZw6uioQjQEH-80">
          <mxGeometry relative="1" as="geometry" />
        </mxCell>
        <mxCell id="CyJOnHxQEZw6uioQjQEH-85" value="" style="edgeStyle=orthogonalEdgeStyle;rounded=0;orthogonalLoop=1;jettySize=auto;html=1;" edge="1" parent="1" source="CyJOnHxQEZw6uioQjQEH-78" target="CyJOnHxQEZw6uioQjQEH-84">
          <mxGeometry relative="1" as="geometry" />
        </mxCell>
        <mxCell id="CyJOnHxQEZw6uioQjQEH-78" value="&lt;div&gt;Check, type of connection&lt;/div&gt;" style="whiteSpace=wrap;html=1;" vertex="1" parent="1">
          <mxGeometry x="1470" y="580" width="120" height="60" as="geometry" />
        </mxCell>
        <mxCell id="CyJOnHxQEZw6uioQjQEH-83" value="" style="edgeStyle=orthogonalEdgeStyle;rounded=0;orthogonalLoop=1;jettySize=auto;html=1;" edge="1" parent="1" source="CyJOnHxQEZw6uioQjQEH-80" target="CyJOnHxQEZw6uioQjQEH-82">
          <mxGeometry relative="1" as="geometry" />
        </mxCell>
        <mxCell id="CyJOnHxQEZw6uioQjQEH-80" value="wifi" style="whiteSpace=wrap;html=1;" vertex="1" parent="1">
          <mxGeometry x="1550" y="720" width="120" height="60" as="geometry" />
        </mxCell>
        <mxCell id="CyJOnHxQEZw6uioQjQEH-82" value="print, current connected&lt;br&gt;wifi. ssid&#39;s" style="whiteSpace=wrap;html=1;" vertex="1" parent="1">
          <mxGeometry x="1570" y="810" width="120" height="60" as="geometry" />
        </mxCell>
        <mxCell id="CyJOnHxQEZw6uioQjQEH-87" value="" style="edgeStyle=orthogonalEdgeStyle;rounded=0;orthogonalLoop=1;jettySize=auto;html=1;" edge="1" parent="1" source="CyJOnHxQEZw6uioQjQEH-84" target="CyJOnHxQEZw6uioQjQEH-86">
          <mxGeometry relative="1" as="geometry" />
        </mxCell>
        <mxCell id="CyJOnHxQEZw6uioQjQEH-84" value="&lt;div&gt;Hotspot&lt;/div&gt;" style="whiteSpace=wrap;html=1;" vertex="1" parent="1">
          <mxGeometry x="1640" y="900" width="120" height="60" as="geometry" />
        </mxCell>
        <mxCell id="CyJOnHxQEZw6uioQjQEH-86" value="show it&#39;s credentials" style="whiteSpace=wrap;html=1;" vertex="1" parent="1">
          <mxGeometry x="1640" y="990" width="120" height="60" as="geometry" />
        </mxCell>
        <mxCell id="CyJOnHxQEZw6uioQjQEH-91" value="" style="edgeStyle=orthogonalEdgeStyle;rounded=0;orthogonalLoop=1;jettySize=auto;html=1;" edge="1" parent="1" source="CyJOnHxQEZw6uioQjQEH-88" target="CyJOnHxQEZw6uioQjQEH-90">
          <mxGeometry relative="1" as="geometry" />
        </mxCell>
        <mxCell id="CyJOnHxQEZw6uioQjQEH-88" value="&lt;div&gt;Connected to nothing&lt;/div&gt;" style="whiteSpace=wrap;html=1;" vertex="1" parent="1">
          <mxGeometry x="1740" y="750" width="120" height="60" as="geometry" />
        </mxCell>
        <mxCell id="CyJOnHxQEZw6uioQjQEH-90" value="&lt;div&gt;Show, &quot;Aint connected&quot;&lt;/div&gt;&lt;div&gt;(show help print message)&lt;br&gt;&lt;/div&gt;" style="whiteSpace=wrap;html=1;" vertex="1" parent="1">
          <mxGeometry x="1790" y="848" width="120" height="60" as="geometry" />
        </mxCell>
        <mxCell id="CyJOnHxQEZw6uioQjQEH-93" value="Spin Up Hotspot, without any question" style="whiteSpace=wrap;html=1;rounded=0;" vertex="1" parent="1">
          <mxGeometry x="1950" y="730" width="120" height="60" as="geometry" />
        </mxCell>
        <mxCell id="CyJOnHxQEZw6uioQjQEH-102" value="" style="edgeStyle=orthogonalEdgeStyle;rounded=0;orthogonalLoop=1;jettySize=auto;html=1;" edge="1" parent="1" source="CyJOnHxQEZw6uioQjQEH-97" target="CyJOnHxQEZw6uioQjQEH-101">
          <mxGeometry relative="1" as="geometry">
            <Array as="points">
              <mxPoint x="510" y="1490" />
              <mxPoint x="400" y="1490" />
            </Array>
          </mxGeometry>
        </mxCell>
        <mxCell id="CyJOnHxQEZw6uioQjQEH-97" value="&lt;div&gt;wifi_connect&lt;/div&gt;" style="rounded=0;whiteSpace=wrap;html=1;" vertex="1" parent="1">
          <mxGeometry x="450" y="1410" width="120" height="60" as="geometry" />
        </mxCell>
        <mxCell id="CyJOnHxQEZw6uioQjQEH-104" value="" style="edgeStyle=orthogonalEdgeStyle;rounded=0;orthogonalLoop=1;jettySize=auto;html=1;" edge="1" parent="1" source="CyJOnHxQEZw6uioQjQEH-101" target="CyJOnHxQEZw6uioQjQEH-103">
          <mxGeometry relative="1" as="geometry" />
        </mxCell>
        <mxCell id="CyJOnHxQEZw6uioQjQEH-101" value="restart Network Manager" style="whiteSpace=wrap;html=1;" vertex="1" parent="1">
          <mxGeometry x="340" y="1530" width="120" height="60" as="geometry" />
        </mxCell>
        <mxCell id="CyJOnHxQEZw6uioQjQEH-106" value="" style="edgeStyle=orthogonalEdgeStyle;rounded=0;orthogonalLoop=1;jettySize=auto;html=1;" edge="1" parent="1" source="CyJOnHxQEZw6uioQjQEH-103" target="CyJOnHxQEZw6uioQjQEH-105">
          <mxGeometry relative="1" as="geometry" />
        </mxCell>
        <mxCell id="CyJOnHxQEZw6uioQjQEH-103" value="Search All Network Devices" style="whiteSpace=wrap;html=1;" vertex="1" parent="1">
          <mxGeometry x="550" y="1610" width="120" height="60" as="geometry" />
        </mxCell>
        <mxCell id="CyJOnHxQEZw6uioQjQEH-108" value="" style="edgeStyle=orthogonalEdgeStyle;rounded=0;orthogonalLoop=1;jettySize=auto;html=1;" edge="1" parent="1" source="CyJOnHxQEZw6uioQjQEH-105" target="CyJOnHxQEZw6uioQjQEH-107">
          <mxGeometry relative="1" as="geometry" />
        </mxCell>
        <mxCell id="CyJOnHxQEZw6uioQjQEH-105" value="Parse the data,into dictionary of ssid&#39;s with highest channel" style="whiteSpace=wrap;html=1;" vertex="1" parent="1">
          <mxGeometry x="280" y="1700" width="120" height="60" as="geometry" />
        </mxCell>
        <mxCell id="CyJOnHxQEZw6uioQjQEH-110" value="" style="edgeStyle=orthogonalEdgeStyle;rounded=0;orthogonalLoop=1;jettySize=auto;html=1;exitX=0.5;exitY=1;exitDx=0;exitDy=0;" edge="1" parent="1" source="CyJOnHxQEZw6uioQjQEH-111" target="CyJOnHxQEZw6uioQjQEH-109">
          <mxGeometry relative="1" as="geometry" />
        </mxCell>
        <mxCell id="CyJOnHxQEZw6uioQjQEH-112" value="" style="edgeStyle=orthogonalEdgeStyle;rounded=0;orthogonalLoop=1;jettySize=auto;html=1;" edge="1" parent="1" source="CyJOnHxQEZw6uioQjQEH-107" target="CyJOnHxQEZw6uioQjQEH-111">
          <mxGeometry relative="1" as="geometry" />
        </mxCell>
        <mxCell id="CyJOnHxQEZw6uioQjQEH-107" value="generate choice of the data" style="whiteSpace=wrap;html=1;" vertex="1" parent="1">
          <mxGeometry x="530" y="1770" width="120" height="60" as="geometry" />
        </mxCell>
        <mxCell id="CyJOnHxQEZw6uioQjQEH-114" value="" style="edgeStyle=orthogonalEdgeStyle;rounded=0;orthogonalLoop=1;jettySize=auto;html=1;" edge="1" parent="1" source="CyJOnHxQEZw6uioQjQEH-109" target="CyJOnHxQEZw6uioQjQEH-113">
          <mxGeometry relative="1" as="geometry" />
        </mxCell>
        <mxCell id="CyJOnHxQEZw6uioQjQEH-109" value="dialog, (choose the correct wifi)" style="whiteSpace=wrap;html=1;" vertex="1" parent="1">
          <mxGeometry x="550" y="1970" width="120" height="60" as="geometry" />
        </mxCell>
        <mxCell id="CyJOnHxQEZw6uioQjQEH-111" value="Start Hotspot again" style="whiteSpace=wrap;html=1;" vertex="1" parent="1">
          <mxGeometry x="370" y="1870" width="120" height="60" as="geometry" />
        </mxCell>
        <mxCell id="CyJOnHxQEZw6uioQjQEH-116" value="" style="edgeStyle=orthogonalEdgeStyle;rounded=0;orthogonalLoop=1;jettySize=auto;html=1;" edge="1" parent="1" source="CyJOnHxQEZw6uioQjQEH-113" target="CyJOnHxQEZw6uioQjQEH-115">
          <mxGeometry relative="1" as="geometry" />
        </mxCell>
        <mxCell id="CyJOnHxQEZw6uioQjQEH-113" value="Choice?" style="rhombus;whiteSpace=wrap;html=1;" vertex="1" parent="1">
          <mxGeometry x="330" y="2000" width="80" height="80" as="geometry" />
        </mxCell>
        <mxCell id="CyJOnHxQEZw6uioQjQEH-115" value="" style="whiteSpace=wrap;html=1;" vertex="1" parent="1">
          <mxGeometry x="250" y="2180" width="120" height="60" as="geometry" />
        </mxCell>
      </root>
    </mxGraphModel>
  </diagram>
</mxfile>
